<?xml version="1.0" encoding="utf-8"?>
<!-- Generator: Adobe Illustrator 16.0.0, SVG Export Plug-In . SVG Version: 6.00 Build 0)  -->
<!DOCTYPE svg PUBLIC "-//W3C//DTD SVG 1.1//EN" "http://www.w3.org/Graphics/SVG/1.1/DTD/svg11.dtd">
<svg version="1.1" id="KensaLogo" xmlns="http://www.w3.org/2000/svg" xmlns:xlink="http://www.w3.org/1999/xlink" x="0px"
	 y="0px" width="598.11px" height="598.11px" viewBox="-1.415 121.89 598.11 598.11"
	 enable-background="new -1.415 121.89 598.11 598.11" xml:space="preserve">
<title>KensaFail</title>
<g>
	<rect x="232.027" y="502.024" fill="#FFFFFF" width="131.706" height="19.883"/>
	<polygon fill="#FFFFFF" points="232.027,583.28 297.21,583.28 297.508,583.28 363.733,583.28 363.733,564.827 232.027,564.827 	"/>
	<path fill="#FFFFFF" d="M186.191,583.28V394.874h88.398l-0.297-69.796L89.904,443.092l-24.704-38.544l154.029-98.52H118.775
		v-45.836h155.368v-61.314h45.688v61.463h155.964v45.837H375.34l154.029,98.519l-24.704,38.545L320.128,325.077l0.298,69.797h89.143
		V583.28h137.51c34.081-52.564,50.743-114.527,47.623-177.096C587.26,256.77,467.311,134.439,318.045,124.319
		C144.371,112.562-0.281,249.924-0.281,421.216c-0.062,57.544,16.641,113.86,48.069,162.064H186.191z"/>
	<rect x="232.027" y="440.562" fill="#FFFFFF" width="131.706" height="18.424"/>
	<path fill="#FFFFFF" d="M409.569,628.969H84.398c114.485,117.615,302.642,120.151,420.257,5.666
		c1.914-1.863,3.803-3.752,5.666-5.666H409.569z"/>
</g>
</svg>
