<svg xmlns="http://www.w3.org/2000/svg" viewBox="0 0 100 100" width="512" height="512">
  <title>Kensa 査</title>
  <g transform="translate(0.00 -3.88)">
    <path d="M12.00 28.75L13.65 28.61L15.30 28.48L16.96 28.36L18.61 28.25L20.26 28.16L21.91 28.07L23.57 27.99L25.22 27.93L26.87 27.87L28.52 27.83L30.17 27.79L31.83 27.77L33.48 27.75L35.13 27.75L36.78 27.75L38.43 27.75L40.09 27.75L41.74 27.75L43.39 27.75L45.04 27.75L46.70 27.75L48.35 27.75L50.00 27.75L51.65 27.75L53.30 27.75L54.96 27.75L56.61 27.75L58.26 27.75L59.91 27.75L61.57 27.75L63.22 27.75L64.87 27.75L66.52 27.75L68.17 27.77L69.83 27.79L71.48 27.83L73.13 27.87L74.78 27.93L76.43 27.99L78.09 28.07L79.74 28.16L81.39 28.25L83.04 28.36L84.70 28.48L86.35 28.61L88.00 28.75L88.00 17.25L86.35 17.39L84.70 17.52L83.04 17.64L81.39 17.75L79.74 17.84L78.09 17.93L76.43 18.01L74.78 18.07L73.13 18.13L71.48 18.17L69.83 18.21L68.17 18.23L66.52 18.25L64.87 18.25L63.22 18.25L61.57 18.25L59.91 18.25L58.26 18.25L56.61 18.25L54.96 18.25L53.30 18.25L51.65 18.25L50.00 18.25L48.35 18.25L46.70 18.25L45.04 18.25L43.39 18.25L41.74 18.25L40.09 18.25L38.43 18.25L36.78 18.25L35.13 18.25L33.48 18.25L31.83 18.23L30.17 18.21L28.52 18.17L26.87 18.13L25.22 18.07L23.57 18.01L21.91 17.93L20.26 17.84L18.61 17.75L16.96 17.64L15.30 17.52L13.65 17.39L12.00 17.25" fill="currentColor"/>
    <path d="M44.25 10.00L44.39 10.74L44.52 11.48L44.64 12.22L44.75 12.96L44.84 13.70L44.93 14.43L45.01 15.17L45.07 15.91L45.13 16.65L45.17 17.39L45.21 18.13L45.23 18.87L45.25 19.61L45.25 20.35L45.25 21.09L45.25 21.83L45.25 22.57L45.25 23.30L45.25 24.04L45.25 24.78L45.25 25.52L45.25 26.26L45.25 27.00L45.25 27.74L45.25 28.48L45.25 29.22L45.25 29.96L45.25 30.70L45.25 31.43L45.25 32.17L45.25 32.91L45.25 33.65L45.25 34.39L45.23 35.13L45.21 35.87L45.17 36.61L45.13 37.35L45.07 38.09L45.01 38.83L44.93 39.57L44.84 40.30L44.75 41.04L44.64 41.78L44.52 42.52L44.39 43.26L44.25 44.00L55.75 44.00L55.61 43.26L55.48 42.52L55.36 41.78L55.25 41.04L55.16 40.30L55.07 39.57L54.99 38.83L54.93 38.09L54.87 37.35L54.83 36.61L54.79 35.87L54.77 35.13L54.75 34.39L54.75 33.65L54.75 32.91L54.75 32.17L54.75 31.43L54.75 30.70L54.75 29.96L54.75 29.22L54.75 28.48L54.75 27.74L54.75 27.00L54.75 26.26L54.75 25.52L54.75 24.78L54.75 24.04L54.75 23.30L54.75 22.57L54.75 21.83L54.75 21.09L54.75 20.35L54.75 19.61L54.77 18.87L54.79 18.13L54.83 17.39L54.87 16.65L54.93 15.91L54.99 15.17L55.07 14.43L55.16 13.70L55.25 12.96L55.36 12.22L55.48 11.48L55.61 10.74L55.75 10.00" fill="currentColor"/>
    <path d="M45.42 22.73L45.31 23.14L45.21 23.43L45.09 23.74L44.95 24.05L44.79 24.38L44.60 24.71L44.39 25.06L44.15 25.42L43.88 25.78L43.58 26.16L43.24 26.54L42.88 26.93L42.48 27.33L42.05 27.74L41.58 28.16L41.08 28.57L40.54 29.00L39.97 29.43L39.36 29.86L38.71 30.30L38.02 30.73L37.30 31.17L36.54 31.62L35.73 32.06L34.90 32.50L34.02 32.95L33.10 33.39L32.15 33.83L31.15 34.27L30.11 34.71L29.04 35.15L27.92 35.59L26.77 36.02L25.57 36.45L24.33 36.88L23.06 37.31L21.74 37.73L20.37 38.14L18.96 38.53L17.51 38.89L16.00 39.22L14.45 39.53L12.84 39.80L11.19 40.03L9.50 40.23L7.73 40.39L10.27 51.61L11.98 50.98L13.68 50.38L15.34 49.81L16.97 49.25L18.56 48.73L20.12 48.22L21.64 47.73L23.13 47.25L24.59 46.79L26.01 46.34L27.39 45.88L28.74 45.41L30.05 44.94L31.33 44.46L32.56 43.97L33.77 43.48L34.93 42.99L36.06 42.48L37.16 41.98L38.23 41.46L39.25 40.94L40.25 40.42L41.21 39.88L42.15 39.34L43.04 38.80L43.91 38.24L44.75 37.68L45.55 37.11L46.32 36.54L47.07 35.95L47.78 35.36L48.46 34.75L49.11 34.14L49.73 33.52L50.32 32.88L50.88 32.24L51.40 31.58L51.90 30.91L52.36 30.23L52.79 29.54L53.18 28.83L53.54 28.12L53.86 27.39L54.15 26.65L54.40 25.91L54.58 25.27" fill="currentColor"/>
    <path d="M45.42 25.27L45.60 25.91L45.85 26.65L46.14 27.39L46.46 28.12L46.82 28.83L47.21 29.54L47.64 30.23L48.10 30.91L48.60 31.58L49.12 32.24L49.68 32.88L50.27 33.52L50.89 34.14L51.54 34.75L52.22 35.36L52.93 35.95L53.68 36.54L54.45 37.11L55.25 37.68L56.09 38.24L56.96 38.80L57.85 39.34L58.79 39.88L59.75 40.42L60.75 40.94L61.77 41.46L62.84 41.98L63.94 42.48L65.07 42.99L66.23 43.48L67.44 43.97L68.67 44.46L69.95 44.94L71.26 45.41L72.61 45.88L73.99 46.34L75.41 46.79L76.87 47.25L78.36 47.73L79.88 48.22L81.44 48.73L83.03 49.25L84.66 49.81L86.32 50.38L88.02 50.98L89.73 51.61L92.27 40.39L90.50 40.23L88.81 40.03L87.16 39.80L85.55 39.53L84.00 39.22L82.49 38.89L81.04 38.53L79.63 38.14L78.26 37.73L76.94 37.31L75.67 36.88L74.43 36.45L73.23 36.02L72.08 35.59L70.96 35.15L69.89 34.71L68.85 34.27L67.85 33.83L66.90 33.39L65.98 32.95L65.10 32.50L64.27 32.06L63.46 31.62L62.70 31.17L61.98 30.73L61.29 30.30L60.64 29.86L60.03 29.43L59.46 29.00L58.92 28.57L58.42 28.16L57.95 27.74L57.52 27.33L57.12 26.93L56.76 26.54L56.42 26.16L56.12 25.78L55.85 25.42L55.61 25.06L55.40 24.71L55.21 24.38L55.05 24.05L54.91 23.74L54.79 23.43L54.69 23.14L54.58 22.73" fill="currentColor"/>
    <path d="M10.00 93.75L11.74 93.61L13.48 93.48L15.22 93.36L16.96 93.25L18.70 93.16L20.43 93.07L22.17 92.99L23.91 92.93L25.65 92.87L27.39 92.83L29.13 92.79L30.87 92.77L32.61 92.75L34.35 92.75L36.09 92.75L37.83 92.75L39.57 92.75L41.30 92.75L43.04 92.75L44.78 92.75L46.52 92.75L48.26 92.75L50.00 92.75L51.74 92.75L53.48 92.75L55.22 92.75L56.96 92.75L58.70 92.75L60.43 92.75L62.17 92.75L63.91 92.75L65.65 92.75L67.39 92.75L69.13 92.77L70.87 92.79L72.61 92.83L74.35 92.87L76.09 92.93L77.83 92.99L79.57 93.07L81.30 93.16L83.04 93.25L84.78 93.36L86.52 93.48L88.26 93.61L90.00 93.75L90.00 82.25L88.26 82.39L86.52 82.52L84.78 82.64L83.04 82.75L81.30 82.84L79.57 82.93L77.83 83.01L76.09 83.07L74.35 83.13L72.61 83.17L70.87 83.21L69.13 83.23L67.39 83.25L65.65 83.25L63.91 83.25L62.17 83.25L60.43 83.25L58.70 83.25L56.96 83.25L55.22 83.25L53.48 83.25L51.74 83.25L50.00 83.25L48.26 83.25L46.52 83.25L44.78 83.25L43.04 83.25L41.30 83.25L39.57 83.25L37.83 83.25L36.09 83.25L34.35 83.25L32.61 83.25L30.87 83.23L29.13 83.21L27.39 83.17L25.65 83.13L23.91 83.07L22.17 83.01L20.43 82.93L18.70 82.84L16.96 82.75L15.22 82.64L13.48 82.52L11.74 82.39L10.00 82.25" fill="currentColor"/>
    <path d="M31 88 V52 H69 V88" fill="none" stroke="currentColor" stroke-width="9.5" stroke-linecap="butt" stroke-linejoin="miter"/>
    <path d="M31 64.58 H69" fill="none" stroke="currentColor" stroke-width="6" stroke-linecap="butt" stroke-linejoin="miter"/>
    <path d="M31 75.42 H69" fill="none" stroke="currentColor" stroke-width="6" stroke-linecap="butt" stroke-linejoin="miter"/>
  </g>
</svg>
