<svg viewBox="0 0 96 96" xmlns="http://www.w3.org/2000/svg"><g id="color"><path d="m76.88 74h-15.36a2.89 2.89 0 0 0 -2.88 2.88v7.68a2.89 2.89 0 0 0 2.88 2.88h15.36a2.89 2.89 0 0 0 2.88-2.88v-7.68a2.89 2.89 0 0 0 -2.88-2.88zm-3.88 7.68h-7.64a1 1 0 0 1 0-1.92h7.64a1 1 0 0 1 0 1.92z" fill="#f99b2f"/><path d="m76.88 51h-15.36a2.89 2.89 0 0 0 -2.88 2.88v7.68a2.89 2.89 0 0 0 2.88 2.88h15.36a2.89 2.89 0 0 0 2.88-2.88v-7.72a2.89 2.89 0 0 0 -2.88-2.84zm-3.88 7.64h-7.64a1 1 0 0 1 0-1.92h7.64a1 1 0 0 1 0 1.92z" fill="#81cfe7"/><path d="m38.48 51h-15.36a2.89 2.89 0 0 0 -2.88 2.88v7.68a2.89 2.89 0 0 0 2.88 2.88h15.36a2.89 2.89 0 0 0 2.88-2.88v-7.72a2.89 2.89 0 0 0 -2.88-2.84zm-3.84 7.68h-7.64a1 1 0 0 1 0-1.92h7.68a1 1 0 1 1 0 1.92z" fill="#81cfe7"/><g fill="#aae680"><circle cx="50" cy="19.28" r="6.72"/><path d="m64.4 34.64a6.8 6.8 0 0 1 -6.72 6.72h-15.36a6.72 6.72 0 0 1 -6.72-6.72 6.8 6.8 0 0 1 6.72-6.72h15.36a6.72 6.72 0 0 1 6.72 6.72z"/></g></g><g id="Design"><path d="m76 65a5 5 0 0 0 5-5v-8a5 5 0 0 0 -5-5h-16a5 5 0 0 0 -5 5v3h-6v-14h7a9 9 0 0 0 9-9 9 9 0 0 0 -9-9h-2.41a9 9 0 1 0 -11.18 0h-2.41a9 9 0 0 0 -9 9 9 9 0 0 0 9 9h7v14h-6v-3a5 5 0 0 0 -5-5h-16a5 5 0 0 0 -5 5v8a5 5 0 0 0 5 5h7v11a5 5 0 0 0 5 5h23v3a5 5 0 0 0 5 5h16a5 5 0 0 0 5-5v-8a5 5 0 0 0 -5-5h-7v-6zm-35-49a7 7 0 1 1 7 7 7 7 0 0 1 -7-7zm-1 23a7 7 0 0 1 -7-7 7.07 7.07 0 0 1 7-7h16a7 7 0 0 1 7 7 7.07 7.07 0 0 1 -7 7zm-20 24a3 3 0 0 1 -3-3v-8a3 3 0 0 1 3-3h16a3 3 0 0 1 3 3v8a3 3 0 0 1 -3 3zm35 13v3h-23a3 3 0 0 1 -3-3v-11h7a5 5 0 0 0 5-5v-3h14v3a5 5 0 0 0 5 5h7v6h-7a5 5 0 0 0 -5 5zm21-3a3 3 0 0 1 3 3v8a3 3 0 0 1 -3 3h-16a3 3 0 0 1 -3-3v-8a3 3 0 0 1 3-3zm-16-10a3 3 0 0 1 -3-3v-8a3 3 0 0 1 3-3h16a3 3 0 0 1 3 3v8a3 3 0 0 1 -3 3z"/><path d="m33 56a1 1 0 0 1 -1 1h-8a1 1 0 0 1 0-2h8a1 1 0 0 1 1 1z"/><path d="m73 56a1 1 0 0 1 -1 1h-8a1 1 0 0 1 0-2h8a1 1 0 0 1 1 1z"/><path d="m73 80a1 1 0 0 1 -1 1h-8a1 1 0 0 1 0-2h8a1 1 0 0 1 1 1z"/><path d="m72 25h8a1 1 0 0 0 0-2h-8a1 1 0 0 0 0 2z"/><path d="m80 31h-8a1 1 0 0 0 0 2h8a1 1 0 0 0 0-2z"/></g></svg>